<svg width="18" height="12" viewBox="0 0 18 12" fill="none" xmlns="http://www.w3.org/2000/svg">
<path d="M17.9974 10.9638C17.9961 10.9247 17.9947 10.8854 17.9933 10.8459C17.9919 10.8065 17.9905 10.7669 17.989 10.7272L17.9879 10.6974L17.9873 10.6825L17.9871 10.6788L17.9868 10.6454L17.9866 10.6439L17.9862 10.6377L17.9824 10.5883C17.9772 10.5224 17.9721 10.4562 17.967 10.39L17.963 10.3399L17.9571 10.2749C17.953 10.2317 17.949 10.1885 17.9449 10.1453C17.9407 10.1023 17.9364 10.0593 17.9322 10.0165C17.93 9.99513 17.9279 9.97378 17.9257 9.95246C17.9231 9.93274 17.9205 9.91305 17.9179 9.89337C17.8963 9.7372 17.877 9.58373 17.8495 9.43618C17.8365 9.36236 17.8245 9.28977 17.811 9.21902C17.7963 9.14845 17.7819 9.07944 17.7679 9.01223C17.7413 8.87774 17.708 8.75214 17.6798 8.63603C17.6726 8.60706 17.6656 8.57864 17.6587 8.55092C17.6511 8.52331 17.6436 8.49641 17.6363 8.47013C17.6214 8.41772 17.6074 8.36798 17.5942 8.32129C17.5807 8.27466 17.5689 8.23089 17.5565 8.19076C17.5437 8.15077 17.532 8.11401 17.5214 8.08081C17.5057 8.03204 17.4924 7.99096 17.482 7.95851C17.4666 7.91059 17.4159 7.88364 17.3675 7.89744L14.3244 8.76468C14.278 8.77789 14.2493 8.82408 14.2581 8.87149C14.2614 8.88919 14.2652 8.90946 14.2694 8.93214C14.2737 8.95497 14.2785 8.98029 14.2837 9.00782C14.2887 9.03542 14.2926 9.06566 14.2976 9.09763C14.3024 9.12963 14.3076 9.16372 14.3131 9.19962C14.3158 9.21757 14.3189 9.23585 14.3214 9.25476C14.3236 9.27371 14.3258 9.29313 14.3281 9.31293C14.3365 9.3922 14.3492 9.4772 14.3548 9.56834C14.3586 9.61368 14.3624 9.66027 14.3664 9.70781C14.3693 9.75552 14.3708 9.80441 14.3733 9.85388C14.3799 9.95265 14.3787 10.0555 14.3806 10.1592L14.381 10.1979L14.3797 10.2321C14.3789 10.2548 14.3781 10.2777 14.3773 10.3006C14.3767 10.3234 14.3761 10.3462 14.3754 10.3692L14.3747 10.4034L14.3726 10.4527C14.3698 10.519 14.367 10.5854 14.3642 10.6515L14.362 10.701L14.3618 10.7071L14.3617 10.7087C14.3617 10.7161 14.3611 10.6497 14.3613 10.6784L14.3611 10.6808L14.3602 10.6906L14.3584 10.7101C14.356 10.7362 14.3537 10.762 14.3513 10.7879C14.3491 10.8136 14.3468 10.8393 14.3446 10.8648C14.3416 10.8903 14.3386 10.9156 14.3355 10.9407C14.3291 10.9909 14.3251 11.0406 14.3171 11.0891C14.3101 11.1376 14.3032 11.1852 14.2965 11.2319C14.2884 11.2782 14.2805 11.3235 14.2728 11.3676C14.2659 11.4118 14.2566 11.4543 14.2484 11.4955C14.2397 11.5365 14.2328 11.5764 14.2239 11.6143C14.2152 11.6521 14.2068 11.6884 14.1988 11.7228C14.1949 11.7399 14.191 11.7564 14.1873 11.7726C14.1835 11.7864 14.1798 11.7998 14.1762 11.8128C14.1741 11.8208 14.172 11.8283 14.17 11.836H17.8919C17.9418 11.836 17.9834 11.7968 17.9853 11.747C17.9853 11.7467 17.9853 11.7464 17.9853 11.7461C17.9884 11.6768 17.9916 11.6056 17.9948 11.5329C17.9962 11.4602 17.9976 11.3859 17.9991 11.3104C18.0012 11.2349 17.9989 11.1582 17.9987 11.0807C17.9983 11.042 17.9979 11.003 17.9974 10.9638Z" fill="white" fill-opacity="0.7"/>
<path d="M17.0297 7.05727C17.0796 7.03717 17.1024 6.97934 17.0794 6.9307C17.0691 6.90909 17.0572 6.88381 17.0436 6.85522C17.0309 6.82835 17.0167 6.7986 17.0014 6.76622C16.9815 6.72573 16.96 6.68196 16.937 6.63518C16.9139 6.58859 16.8893 6.53901 16.8633 6.48675C16.8501 6.45958 16.8372 6.43717 16.8236 6.41166C16.8101 6.38673 16.7963 6.36122 16.7822 6.33517C16.7538 6.28318 16.7248 6.22882 16.6937 6.17315C16.6615 6.11809 16.6283 6.06114 16.5941 6.00259C16.577 5.97339 16.5596 5.94378 16.542 5.91384C16.5237 5.88436 16.505 5.85452 16.4862 5.82435C16.4484 5.76427 16.4097 5.70286 16.3704 5.64045C16.2875 5.51824 16.2049 5.39042 16.1128 5.26603C16.0902 5.23471 16.0674 5.20328 16.0446 5.17175L16.0103 5.12449L15.9746 5.07802C15.9269 5.01619 15.8789 4.95416 15.831 4.8921C15.7822 4.83077 15.7317 4.77073 15.6823 4.71046C15.6572 4.68052 15.633 4.65015 15.6075 4.62089C15.5819 4.59173 15.5564 4.56265 15.5309 4.53368C15.5055 4.50482 15.4802 4.47602 15.4549 4.44739C15.4299 4.41865 15.4046 4.3904 15.3785 4.36308C15.3269 4.30811 15.2759 4.25383 15.2258 4.20041C15.1756 4.14717 15.1236 4.09713 15.0741 4.04711C15.0243 3.99736 14.9759 3.94849 14.9264 3.90311C14.8775 3.85733 14.8299 3.81281 14.7839 3.76972C14.7381 3.72654 14.6913 3.68732 14.6478 3.64848C14.6038 3.61005 14.5617 3.57324 14.5216 3.53822C14.4806 3.50436 14.4416 3.47227 14.405 3.4421C14.3683 3.41205 14.3341 3.38394 14.3024 3.35794C14.2706 3.33204 14.2402 3.30959 14.2135 3.28865C14.1745 3.25873 14.1415 3.23346 14.1154 3.21337C14.0755 3.18275 14.0186 3.18929 13.9866 3.22808L12.3532 5.20515C12.3224 5.24244 12.3251 5.29693 12.3594 5.33096C12.3731 5.34445 12.3889 5.36007 12.4066 5.37763C12.4236 5.3947 12.4431 5.41278 12.463 5.43389C12.483 5.45497 12.5046 5.4778 12.5276 5.50217C12.5507 5.52642 12.5753 5.55223 12.6011 5.57944C12.6261 5.60752 12.6523 5.6371 12.6797 5.66792C12.7067 5.69903 12.7363 5.72992 12.7644 5.76436C12.7928 5.79847 12.8221 5.83371 12.8523 5.86996C12.883 5.90554 12.9123 5.94417 12.9426 5.98321C12.9727 6.0225 13.0048 6.06125 13.0349 6.1028C13.0651 6.14422 13.0958 6.18632 13.1268 6.22895C13.1427 6.24993 13.1577 6.27181 13.1725 6.29402C13.1875 6.31607 13.2025 6.3382 13.2176 6.36045C13.2327 6.38258 13.248 6.40482 13.2632 6.42714C13.2784 6.44946 13.2923 6.47281 13.307 6.49564C13.3358 6.54172 13.3657 6.58711 13.3941 6.63352C13.4217 6.68037 13.4493 6.72725 13.4768 6.77392L13.4975 6.80874L13.5168 6.84431C13.5298 6.86791 13.5426 6.89148 13.5555 6.91492C13.6084 7.00756 13.6531 7.10307 13.6999 7.1928C13.7213 7.23881 13.7424 7.28402 13.763 7.32832C13.7733 7.35037 13.7835 7.3722 13.7935 7.39374C13.8029 7.41568 13.8121 7.43734 13.8212 7.45873C13.8395 7.50129 13.8572 7.54274 13.8745 7.58278C13.8904 7.62338 13.9057 7.6626 13.9205 7.70023C13.9278 7.71903 13.935 7.73743 13.9421 7.75541C13.9488 7.77295 13.957 7.79194 13.9615 7.80655C13.972 7.83722 13.9819 7.86634 13.9913 7.8937C14.0008 7.92087 14.0098 7.94628 14.0181 7.9698C14.0289 8.00221 14.0389 8.03192 14.0479 8.05879C14.0579 8.0888 14.0667 8.11533 14.0743 8.13807C14.0913 8.18909 14.1478 8.21511 14.1978 8.19506L17.0297 7.05727Z" fill="white" fill-opacity="0.7"/>
<path d="M8.71212 3.52585C8.73686 3.52922 8.76422 3.53296 8.79404 3.53703C8.82368 3.54218 8.85574 3.54777 8.88997 3.55374C8.92415 3.55962 8.96053 3.56585 8.99886 3.57244C9.03217 3.57798 9.06667 3.58601 9.10254 3.59351L10.1333 1.48502C10.0822 1.47704 10.0316 1.46912 9.9819 1.46137C9.94787 1.45631 9.91437 1.45049 9.881 1.44633C9.84764 1.44229 9.81467 1.43829 9.78214 1.43435C9.71717 1.42664 9.65398 1.41912 9.59287 1.41186C9.5316 1.40661 9.47239 1.40153 9.41557 1.39666C9.35873 1.39231 9.30452 1.38657 9.25262 1.3841C9.20082 1.38156 9.15167 1.37914 9.1055 1.37686C9.05936 1.37469 9.0162 1.37266 8.97632 1.37076C8.93639 1.37012 8.89971 1.36953 8.86657 1.369C8.81996 1.36843 8.7804 1.36796 8.74868 1.36758C8.69838 1.36697 8.65675 1.40629 8.65435 1.45654L8.56035 3.41905C8.55804 3.4674 8.59292 3.5095 8.64088 3.51607C8.6613 3.51888 8.68512 3.52216 8.71212 3.52585Z" fill="white" fill-opacity="0.7"/>
<path d="M11.4826 4.60646C11.5103 4.6266 11.5366 4.6457 11.5612 4.66368C11.5859 4.68138 11.6091 4.69794 11.6305 4.71326C11.6397 4.71963 11.655 4.73123 11.6675 4.74051C11.6804 4.75012 11.6926 4.75927 11.7042 4.76795C11.7296 4.78687 11.752 4.80359 11.7712 4.81789C11.8143 4.85006 11.8755 4.83919 11.905 4.79421L13.2508 2.74419C13.2804 2.69921 13.2661 2.63871 13.2194 2.61194C13.1986 2.60004 13.1744 2.58614 13.1469 2.57039C13.1343 2.56315 13.1211 2.55556 13.1071 2.54756C13.092 2.53898 13.0761 2.53 13.0596 2.52064C13.0213 2.49953 12.9798 2.47673 12.9356 2.45235C12.8913 2.42823 12.8442 2.40258 12.7946 2.3755C12.7473 2.3518 12.6976 2.32688 12.6457 2.30087C12.5936 2.27544 12.5404 2.24715 12.4834 2.22148C12.4266 2.19548 12.368 2.1686 12.3077 2.14095C12.2478 2.11268 12.1846 2.08701 12.1204 2.06007C12.056 2.03369 11.9912 2.00485 11.9235 1.97941C11.9063 1.97291 11.8889 1.96633 11.8717 1.95978L11.2911 4.47972C11.3232 4.49988 11.3534 4.52125 11.3832 4.54054C11.4179 4.56352 11.451 4.58552 11.4826 4.60646Z" fill="white" fill-opacity="0.7"/>
<path d="M6.90504 3.51558C6.93104 3.51215 6.95656 3.50791 6.98204 3.50522C7.00753 3.50264 7.03271 3.50008 7.05753 3.49754C7.10708 3.49241 7.15526 3.48741 7.20189 3.48256C7.24865 3.47943 7.29384 3.4764 7.33721 3.47348C7.35885 3.472 7.38003 3.47056 7.40074 3.46914C7.42139 3.46776 7.44208 3.466 7.45982 3.46598C7.49637 3.46501 7.53106 3.46412 7.56363 3.46327C7.59611 3.46225 7.62646 3.46128 7.65458 3.46039C7.68923 3.46016 7.72106 3.45995 7.74979 3.45976C7.78143 3.45959 7.8094 3.45944 7.83331 3.45931C7.88712 3.45902 7.92941 3.41346 7.92589 3.35976L7.80474 1.51107C7.80119 1.45737 7.75333 1.41771 7.69996 1.42446C7.67622 1.42745 7.6485 1.43096 7.6171 1.43492C7.588 1.43861 7.55577 1.44273 7.52068 1.4472C7.47922 1.45335 7.43439 1.45999 7.38647 1.46709C7.33871 1.47437 7.28785 1.48212 7.23425 1.49028C7.20682 1.49415 7.18156 1.49928 7.15505 1.50429C7.12862 1.50933 7.10158 1.5145 7.07398 1.51977C7.01886 1.53041 6.96147 1.54152 6.90201 1.553C6.84303 1.56643 6.78202 1.58034 6.71932 1.59461C6.68804 1.60179 6.65632 1.60908 6.62422 1.61647C6.59216 1.62398 6.56001 1.63315 6.5274 1.64158C6.46232 1.65891 6.39587 1.67663 6.32827 1.69463C6.26134 1.71481 6.1933 1.73531 6.12445 1.75608C6.09012 1.76671 6.05542 1.77673 6.02094 1.78808C5.98661 1.79981 5.95203 1.81157 5.91735 1.82342C5.88274 1.83528 5.84799 1.84718 5.81314 1.85913C5.77828 1.87099 5.74336 1.88291 5.70891 1.89649C5.63985 1.92285 5.57052 1.94932 5.5012 1.97579C5.43217 2.00281 5.36428 2.03275 5.29624 2.06107C5.26233 2.07553 5.22832 2.08947 5.1948 2.10431C5.16151 2.11968 5.12833 2.13498 5.09527 2.15026C5.06228 2.16553 5.02941 2.18076 4.99672 2.1959C4.96404 2.21102 4.93149 2.22591 4.89985 2.24234C4.83633 2.2744 4.7736 2.30608 4.71191 2.33723C4.6502 2.36817 4.59138 2.40231 4.53297 2.43375C4.47482 2.46577 4.41764 2.49631 4.36369 2.52922C4.30945 2.56139 4.25668 2.59271 4.20563 2.62299C4.15444 2.65285 4.10696 2.6851 4.06042 2.71424C4.01421 2.74386 3.96993 2.77226 3.92781 2.79926C3.8866 2.82755 3.84749 2.85438 3.81075 2.8796C3.77411 2.90483 3.73981 2.92844 3.7081 2.95029C3.67642 2.97213 3.64839 2.99379 3.62257 3.01251C3.58757 3.03836 3.55769 3.06041 3.53352 3.07826C3.49314 3.10806 3.48366 3.16436 3.5119 3.20587L4.27955 4.33449C4.30687 4.37465 4.36028 4.38725 4.40259 4.36336C4.42209 4.35237 4.44513 4.33935 4.47141 4.32454C4.49432 4.31186 4.5191 4.29689 4.54708 4.28232C4.57505 4.26773 4.60529 4.25201 4.6376 4.23518C4.66981 4.21834 4.7041 4.20041 4.74023 4.18152C4.77699 4.1639 4.81562 4.14537 4.85594 4.12605C4.89645 4.10717 4.93755 4.08556 4.98187 4.0667C5.02585 4.0474 5.07132 4.02744 5.11808 4.00692C5.16437 3.98561 5.2134 3.96698 5.26301 3.94709C5.31288 3.92776 5.36282 3.9059 5.41514 3.88742C5.46722 3.86865 5.5202 3.84957 5.5738 3.83024C5.60038 3.82014 5.62774 3.8116 5.65516 3.80284C5.68252 3.79403 5.71003 3.78518 5.73764 3.7763C5.76519 3.76739 5.79285 3.75845 5.82059 3.74947C5.84848 3.741 5.87677 3.73342 5.90487 3.72531C5.96131 3.7097 6.01738 3.69238 6.07422 3.67787C6.1311 3.66379 6.18798 3.64971 6.24463 3.63571C6.27275 3.62822 6.30128 3.62237 6.32969 3.61651C6.35803 3.61055 6.3863 3.6046 6.41448 3.59867C6.44256 3.5927 6.47054 3.58677 6.49839 3.58086C6.5263 3.57529 6.55436 3.57098 6.58205 3.566C6.63741 3.55639 6.69209 3.54688 6.7459 3.53756C6.7999 3.53011 6.85301 3.52276 6.90504 3.51558Z" fill="white" fill-opacity="0.7"/>
<path d="M1.67067 4.9748C1.65054 5.00326 1.63035 5.03185 1.61005 5.06055C1.58982 5.08924 1.56951 5.11804 1.54912 5.14693C1.52883 5.17587 1.50984 5.20588 1.4901 5.2354C1.45118 5.29484 1.41135 5.35382 1.37323 5.41392C1.336 5.47453 1.29877 5.53515 1.26169 5.59553L1.23403 5.64074L1.20776 5.68669C1.19031 5.71723 1.17292 5.74772 1.15558 5.77805C1.08472 5.89843 1.02316 6.02147 0.960597 6.13834C0.931475 6.19793 0.902827 6.25653 0.874785 6.3139C0.860877 6.34255 0.847103 6.37094 0.833517 6.39894C0.820728 6.42732 0.808109 6.45538 0.795642 6.48309C0.770821 6.53837 0.746682 6.59219 0.72332 6.64421C0.70153 6.69691 0.680461 6.7478 0.660244 6.79665C0.640425 6.84564 0.620398 6.89201 0.603326 6.93701C0.586482 6.98205 0.570491 7.02479 0.555446 7.06494C0.540478 7.10505 0.526476 7.14259 0.513535 7.1773C0.501579 7.21235 0.490609 7.24454 0.48068 7.27363C0.467796 7.31186 0.456731 7.34468 0.447693 7.37155C0.431683 7.41903 0.45603 7.47055 0.50283 7.48849L1.21733 7.76241C1.26281 7.77985 1.31402 7.7595 1.33503 7.71556C1.34545 7.69381 1.3579 7.66775 1.37221 7.63784C1.38407 7.61318 1.39718 7.58588 1.41149 7.55615C1.42668 7.52684 1.44311 7.4952 1.46067 7.46134C1.47818 7.42759 1.49679 7.39161 1.51642 7.35372C1.5362 7.31594 1.55897 7.27719 1.58158 7.23626C1.60446 7.19557 1.62832 7.15314 1.65301 7.10922C1.67902 7.06615 1.70591 7.02159 1.73357 6.97578C1.74735 6.95291 1.76131 6.92973 1.77545 6.90628C1.79032 6.88326 1.80538 6.85999 1.8206 6.8364C1.85103 6.78941 1.88212 6.74143 1.91374 6.69259C1.98093 6.59747 2.04664 6.4973 2.12089 6.40068C2.13903 6.37626 2.15723 6.35176 2.1755 6.32719L2.20288 6.2903L2.23156 6.25422C2.26976 6.20611 2.30811 6.15785 2.34646 6.10959C2.38551 6.06192 2.42604 6.01548 2.46543 5.96865C2.4854 5.9454 2.50458 5.92167 2.52502 5.89907C2.54548 5.8765 2.56587 5.85399 2.58618 5.83158C2.60646 5.80918 2.62663 5.78688 2.64672 5.76468C2.66661 5.74236 2.6867 5.72043 2.70756 5.69942C2.7486 5.65692 2.78915 5.61494 2.82903 5.57361C2.86884 5.53236 2.91039 5.49409 2.94961 5.4554C2.98913 5.41699 3.02737 5.3791 3.06674 5.34437C3.10547 5.30912 3.14314 5.27485 3.17959 5.24167C3.21574 5.2083 3.253 5.17852 3.2874 5.14862C3.32204 5.11912 3.35523 5.09085 3.3868 5.06396C3.4178 5.03943 3.4472 5.01616 3.47483 4.99426C3.5023 4.97239 3.52802 4.95191 3.55179 4.93296C3.56271 4.92394 3.57749 4.91314 3.58997 4.90365C3.60278 4.89397 3.615 4.88476 3.6266 4.87602C3.65185 4.85694 3.67416 4.84012 3.69325 4.82572C3.73621 4.7933 3.74286 4.73149 3.70792 4.69057L2.89442 3.73753C2.85948 3.69661 2.79739 3.69348 2.75864 3.7308C2.74142 3.7474 2.72128 3.76679 2.6985 3.78875C2.68804 3.79881 2.67702 3.80944 2.66546 3.82056C2.65369 3.83198 2.64249 3.84239 2.6279 3.8573C2.60001 3.88543 2.56987 3.91588 2.53764 3.9484C2.50558 3.98093 2.47146 4.01555 2.43547 4.05204C2.40203 4.08827 2.36687 4.12635 2.33018 4.16608C2.29396 4.20612 2.25489 4.24646 2.21709 4.29068C2.17914 4.33468 2.13992 4.38017 2.09958 4.42691C2.05875 4.47311 2.01924 4.52273 1.9786 4.57307C1.93826 4.62368 1.89574 4.67418 1.85518 4.72768C1.81472 4.78119 1.77361 4.83559 1.732 4.89069C1.71085 4.91799 1.69064 4.94619 1.67067 4.9748Z" fill="white" fill-opacity="0.7"/>
<path d="M0.19241 8.31618C0.187654 8.33959 0.182084 8.36703 0.175774 8.39803C0.169995 8.42649 0.163591 8.45802 0.156619 8.49233C0.149779 8.52742 0.14309 8.56886 0.135625 8.61115C0.128273 8.65386 0.120467 8.69929 0.112244 8.74719C0.108265 8.77106 0.103718 8.79573 0.0999472 8.82061C0.0965935 8.84534 0.093183 8.87061 0.0896777 8.8964C0.0763388 8.99972 0.0587746 9.11089 0.0486567 9.22965C0.0427831 9.28882 0.0367578 9.34959 0.0305999 9.41172C0.025522 9.47392 0.0221305 9.53762 0.0177536 9.60219C0.00752209 9.73124 0.0056463 9.86509 0.00138315 10.0005L0 10.0514L0.000246315 10.1025C0.000435789 10.1366 0.000625262 10.1708 0.000814735 10.2051C0.00102316 10.2393 0.00123158 10.2736 0.00142105 10.3079L0.00174315 10.3594L0.00371368 10.4109C0.00649893 10.4794 0.00928419 10.548 0.0120694 10.6163L0.0141726 10.6674L0.0148168 10.6839L0.0157263 10.6962L0.0175452 10.7208C0.0199705 10.7536 0.0223768 10.7864 0.0247831 10.819C0.0271894 10.8516 0.0295957 10.884 0.0319641 10.9163C0.035242 10.95 0.038482 10.9836 0.041741 11.0169C0.0450189 11.0502 0.0482778 11.0833 0.0515178 11.1162C0.0531473 11.1326 0.0547767 11.149 0.0564062 11.1653C0.0584336 11.1813 0.0604609 11.1973 0.0624693 11.2132C0.0705409 11.2767 0.0784798 11.3391 0.0862482 11.4002C0.0956272 11.461 0.104798 11.5206 0.113703 11.5785C0.12204 11.6365 0.132783 11.6925 0.142654 11.7467C0.143469 11.751 0.144284 11.7553 0.14508 11.7596C0.153322 11.8039 0.191861 11.836 0.236898 11.836H0.488727C0.5425 11.836 0.585169 11.7907 0.582005 11.737C0.581152 11.7227 0.580281 11.7082 0.579315 11.6936C0.576169 11.6414 0.57238 11.5876 0.571167 11.532C0.569348 11.4765 0.567491 11.4195 0.565578 11.3613C0.565218 11.3031 0.564858 11.2436 0.564498 11.1831C0.564403 11.168 0.564308 11.1528 0.564214 11.1376C0.564536 11.1226 0.564877 11.1076 0.565218 11.0924C0.565881 11.0623 0.566544 11.0319 0.567226 11.0013C0.567889 10.9707 0.568571 10.94 0.569254 10.9091C0.570769 10.8767 0.572266 10.8442 0.573801 10.8116C0.575317 10.7789 0.576851 10.7461 0.578367 10.7133L0.579523 10.6886L0.580091 10.6762L0.580167 10.6747C0.580167 10.6708 0.580243 10.6783 0.580281 10.677L0.580508 10.674L0.580982 10.6681L0.584809 10.6203C0.589887 10.5565 0.594984 10.4926 0.6001 10.4286L0.604003 10.3807L0.609517 10.3329C0.613192 10.3011 0.616849 10.2694 0.620506 10.2377C0.624144 10.206 0.627782 10.1744 0.631401 10.1429L0.636801 10.0958L0.643792 10.0489C0.662967 9.92445 0.679262 9.80199 0.703135 9.68475C0.714333 9.62601 0.724356 9.56822 0.735857 9.51197C0.748382 9.45594 0.760621 9.40112 0.772539 9.34777C0.794594 9.24089 0.823186 9.14152 0.846453 9.04942C0.852421 9.02644 0.858257 9.00391 0.86396 8.98193C0.869985 8.96027 0.876484 8.93977 0.882472 8.91946C0.894541 8.87905 0.906004 8.84072 0.916766 8.80466C0.927775 8.76832 0.936813 8.73582 0.947347 8.70321C0.958394 8.66994 0.968512 8.63946 0.977682 8.61189C0.987648 8.58184 0.996459 8.55531 1.004 8.53257C1.02096 8.48155 0.991343 8.42685 0.939352 8.413L0.308046 8.24465C0.256035 8.23076 0.203134 8.26344 0.19241 8.31618Z" fill="white" fill-opacity="0.7"/>
<path d="M7.33862 11.5883C7.54401 11.6887 7.76159 11.7363 7.97579 11.7363C8.51348 11.7363 9.03021 11.4368 9.28227 10.9212C9.33081 10.8219 9.36839 10.7123 9.39283 10.6092L10.8627 4.22928L11.4225 1.79961L11.7693 0.294498C11.8097 0.11933 11.6703 0 11.5305 0C11.4487 0 11.3667 0.0409074 11.3204 0.135436L10.6147 1.5789L9.5737 3.70831L6.67143 9.64471C6.31895 10.3657 6.61767 11.2359 7.33862 11.5883ZM8.02967 9.53381C8.423 9.53381 8.74187 9.85265 8.74187 10.246C8.74187 10.6393 8.423 10.9582 8.02967 10.9582C7.63634 10.9582 7.31748 10.6393 7.31748 10.246C7.31748 9.85262 7.63634 9.53381 8.02967 9.53381Z" fill="white"/>
</svg>
