<svg width="25" height="21" viewBox="0 0 25 21" fill="none" xmlns="http://www.w3.org/2000/svg">
<path fill-rule="evenodd" clip-rule="evenodd" d="M8.21073 -1.34959e-05C8.67502 -1.34959e-05 9.05198 0.379487 9.05198 0.84802C9.05198 1.31544 8.67613 1.69494 8.21073 1.69494L6.40997 1.69605C4.91541 1.69828 3.69942 2.92359 3.69942 4.42935V6.53941C3.69942 7.00683 3.32136 7.38745 2.85708 7.38745C2.39279 7.38745 2.01583 7.00683 2.01583 6.53941V4.42935C2.01583 1.98986 3.98684 0.00332522 6.40886 0.00109941L8.20963 -1.34959e-05H8.21073ZM16.1399 0.000272149H17.9009C20.3296 0.000272149 22.3039 1.98792 22.3039 4.43297V6.5397C22.3039 7.00712 21.928 7.38773 21.4626 7.38773C20.9983 7.38773 20.6214 7.00712 20.6214 6.5397V4.43297C20.6214 2.92276 19.401 1.69411 17.9009 1.69411H16.1399C15.6756 1.69411 15.2987 1.31573 15.2987 0.848305C15.2987 0.379773 15.6756 0.000272149 16.1399 0.000272149ZM15.2135 4.24765H9.10706C7.70978 4.26212 6.58665 5.41175 6.59881 6.81957V8.23296C6.60213 8.39767 6.73368 8.53233 6.89728 8.53789H17.4211C17.5858 8.53344 17.7174 8.39878 17.7229 8.23296V6.81957C17.724 6.13958 17.4631 5.48631 16.9922 4.99997C16.5246 4.51808 15.8823 4.24765 15.2135 4.24765ZM0.842357 10.2611H23.4785C23.9428 10.2611 24.3197 10.6406 24.3197 11.1091C24.3197 11.5765 23.9428 11.9549 23.4785 11.9549H22.3045V15.9947C22.3045 18.4409 20.3291 20.4286 17.9015 20.4286H16.1406C15.6752 20.4286 15.2982 20.0491 15.2982 19.5805C15.2982 19.1131 15.6752 18.7336 16.1406 18.7336H17.9015C19.4016 18.7336 20.622 17.5061 20.622 15.9947V11.9549H17.7225V13.0801C17.7335 14.4879 16.6115 15.6386 15.2131 15.652H9.10665C7.70937 15.6386 6.58734 14.4879 6.5984 13.0801V11.9549H3.69882V15.9992C3.69882 17.505 4.91591 18.7303 6.41158 18.7325L8.21124 18.7336C8.67552 18.7336 9.05248 19.1131 9.05248 19.5805C9.05137 20.0491 8.67552 20.4286 8.21013 20.4286L6.40937 20.4274C3.98734 20.4252 2.01523 18.4387 2.01523 15.9992V11.9549H0.842357C0.378071 11.9549 9.73156e-06 11.5765 9.73156e-06 11.1091C9.73156e-06 10.6406 0.378071 10.2611 0.842357 10.2611Z" fill="white"/>
</svg>
